<?xml version="1.0" encoding="UTF-8"?>
<svg id="Layer_1" data-name="Layer 1" xmlns="http://www.w3.org/2000/svg" viewBox="0 0 664.95 637.48">
  <defs>
    <style>
      .cls-1 {
        fill: none;
        stroke: #fff;
        stroke-miterlimit: 10;
      }

      .cls-2 {
        fill: #fff;
      }
    </style>
  </defs>
  <path class="cls-1" d="M464.09,636.89c-.56-3.49-1.7-6.92-1.97-10.48-.55-7.37,1.9-16.76.9-23.04-.56-3.52-4.63-7.42-4.54-10.09.13-3.98,5.03-10.34,5.53-15.78.66-7.12-2.56-14.4-1.89-22.18.35-4.01,2.26-7.35,2.71-11.13,2.34-19.95-6.22-34.65-8.09-52.59-.44-4.21.22-8.48-.23-12.69-.34-3.22-2.47-7.79-2.52-10.24-.1-5.35,5.71-18.28,6.31-25.86.63-8.07-2.67-16.79-1.61-23.75,1.07-6.99,6.12-13.7,8.52-20.07,3.75-9.93,5.68-21.72,6.95-32.26,8.97,9.38,18.38,14.79,31.82,13.82,5.5-.4,12.06-2.92,17.5-2.78,9.43.24,23.61,7.33,32.16,5.37,5.2-1.19,12.81-14.11,14.51-19.18,24.21,8.32,53.04,14.05,77.22,2.94,16.12-7.41,19.79-13.33,15.32-31.33-13.08-52.67-45.79-76.61-76.37-116.48-.82-1.07-5.72-7.42-5.81-7.9-.63-3.43,2.48-6.17-1.65-11.38-3.52-4.44-6.73-2.62-7.86-3.26-.5-.28-5.25-8.56-5.83-9.81-5.95-12.89-4.28-26.83-9.37-39.53-3.65-9.12-10.76-15.87-14.65-24.1-2.81-5.95-3.22-14.52-9.47-18.2-4.03-2.37-9.33-2.9-12.73.83-1.46,1.61-1.4,4.71-3.27,5.48-2.88-6.35-9.77-17.52-17.92-16.57-7.15.83-10.48,6.49-9.78,13.36.27,2.6,1.98,4.64,1.39,6.91-11.96-16.74-21.24-35.97-37.87-48.86-12.46-9.66-19.23-4.27-13.22,10.45,7.98,19.56,27.91,32.2,34.93,52.25-2.17,2.33-29.96-22.13-33.3-24.35-4.92-3.28-16.32-10.21-22.07-7.46-6.14,5.35-.67,14.53,3.79,19.27,16.94,17.96,46.7,32.56,59.73,53.76,2.45,3.98,4.01,9.02,6.44,12.93,5.96,9.59,16.13,15.38,24.19,22.87,10.94,10.17,27.34,33.08,34.88,46.31,5.58,9.79,9.5,20.44,14.02,30.71-3.77-1.58-10.63-2.11-13.8-4.19-2.23-1.46-2.38-4.5-4.7-6.37-2.69-2.17-6.35-1.9-8.63-3.36-2.02-1.29-3.68-5.52-6.68-7.16s-6.73-1.52-9.89-3.03c-3.99-1.91-10.42-8.92-15.67-12.01s-12.78-6.59-18.62-9.06c-3.95-1.67-10.74-2.83-13.36-4.17-1.59-.81-3.2-5.35-5.53-7.39-6.41-5.61-29.83-11.37-38.32-10.57-3.29.31-6.72,2.34-9.94,1.68-2.18-.45-3.3-2.57-5.04-3.33-11.87-5.12-20.1-8.46-32.97-10.44-4.55-.7-7.87-9.69-9.07-13.96-2.06-7.32-3.26-19.41-2.41-26.91.8-7.13,5.21-13.97,3.59-21.77-3.9-.97-.2,4.91-2.75,5.53-1.07-10.22,2.82-19.75,1.84-29.97l-1.84.47-.93-12.92h3.68c-3.32,5.65,2.26,10.43,2.76,14.38.82,6.36-5.2,11.25-3.66,19.27.73,3.78,5.63,6.33,9.18,3.68,4.47-3.34,9.21-24.58,9.32-30.4.16-8.34-4.07-22.22-13.9-13.39-.28-2.96,3.34-3.3,4.51-5.17,1.74-2.78,2.31-30.05,1.83-34.84-.51-5.14-3.24-13.92-6.64-17.81-1.33-1.52-5.16-3.27-6.57-4.96-2.71-3.26-3.74-8.86-7.32-12.52-1.7-1.74-14.37-11.64-16.38-12.69-7.48-3.93-16.12-3.02-24.13-4.48-6.25-1.14-13.04-4.55-19.57-4.4s-23.16,6.07-27.77,11.07c-1.47,1.6-1.24,3.84-3.41,4.9-3.81,1.86-17-1.72-12.59,6.53,1.63,3.05,6.07,4.08,5.44,8.38-.3,2.06-9.32,9.85-11.14,15.7-3.26,10.48,1.15,32.98,4.14,43.89.37,1.36.76,2.7,1.91,3.63,1.88.52,2.05-3.16,2.19-4.25,2.14-16.79.89-35.53,12.13-49.68,10.38-13.08,21.13-8.28,35.24-10.9,13.12-2.44,15.55-9.52,30.25-3.86,10.77,4.15,21.38,14.34,21.27,26.69-.04,3.91-2.3,8.58-2.72,12.11-1.22,10.37,3.9,16.18,6.65,25.49.49,1.67,2.93,11.36,2.5,11.79-5.93,1.25-28.26-16.66-31.37-13.83l1.43,3.74-2.95,2.47-3.94-2.21.83-4.92-12.91,1.83,6.74-4.78c8.97-3.93,18.15-3.11,27.4-.75-2.29-6.65-10.56-9.52-17.03-9.23-7.35.32-27.13,5.38-20.82,16.16l6.47,1.38-2.76,4.6,10.14-4.61c.31,7.34,10.84,7.26,11.1,0l1.32.05c8.55,5.17,17.08,11.24,27.19,12.96.92,10.91-1.53,23.24-7.44,32.51-2.36,3.7-6.25,7.01-9.08,10.3-2,2.32-2.23,6.69-6.45,5.99.51-6.19-.58-12.92-5.6-17-3.09-2.51-21.98-9.99-25.76-10.29-1.96-.16-5.74,1.72-8.33,2.39.75-.16,5.92-4.19,7.15-4.49,1.55-.37,6.46,3.81,5.75.36-4.08-7.72-11.3,2.26-17.08,1.88-2.52-.17-6.97-4.22-10.54-3.32-1.36-5.65,2.36-9.15,4.08-13.82,2.05-5.58,3.68-14.58,1.92-20.32-3.23-10.5-31.17-13.77-32.79-1.25-.77,5.94,6.19,7.95-.02,13.29h16.15c1.47,0,8.48-3.12,9.28-4.61,1.34-2.68-1.09-4.13-3.28-5.07-5.49-2.37-12.59-1.98-17.07,2.2-5.34-4.13-1.2-10.04,4.13-11.46s15.29.56,18.98,5.07c9.86,12.05-10.24,33.4-2.65,37.93,5.51.61,10.26,4.83,16.01,3.61-5.29,1.36-5.63-.09-9.62.06-2.25.08-19.03,9.75-20.77,11.54-2.1,2.15-3.62,6.73-4.73,9.57-.97.21-1.87.1-2.74-.39-3.9-2.22-7.16-19.36-7.4-23.97-.41-7.95,1.95-16.28.96-24.04-.16-1.28-.5-2.67-1.83-1.36-3.86,20.61-7.78,49.05,3.41,68.01,1.81,3.06,6.48,4.5,5.32,9.39,2.22,4.15,14.07,19.24,14.25,22.64.06,1.13-.84,2.13-.86,3.25l-2.21-1.87c-13.45,4.43-29.46,10.94-16.55,26.66,16.63,20.26,64.36,23.76,88.18,18.29,18.46-4.24,41.49-16.4,42.74-37.56,6.82-.32,9.25,3.88,13.61,5.77,1.91.83,4.07.57,5.98,1.4s2.96,3.01,5.74,3.56c4.03.79,10.12-2.47,14.26-2.33,2.76.09,11.95,2.46,15.1,3.35,4.66,1.31,20.89,6.53,21.34,11.95-.25,2.16-2.73,2.36-4.03,4.02-11.22,14.38-2.7,37.94-5.52,53.52-2.93,16.18-21.63,51.3-31,65.67-27.44,42.05-82.87,86.75-126.12,112.13-6.97,4.09-38.19,23.28-30.93,2.28,3.31-9.58,16.33-25.85,22.9-34.3,29.82-38.39,64.38-73.16,90.27-114.55,11.09-17.72,37.21-65.92,39.2-85.34.33-3.21,1.07-7.16-2.62-8.27-3.14-.55-13.32,13.19-16.06,15.88-51.45,50.67-101.6,12.86-158.39,35.87-38.95,15.78-69.79,40.14-104.94,61.15-10.27,6.14-26.32,15.71-35.77,3.79-3.48-4.39-7.94-21.22-14.12-18.71-6.81,8.17.97,23.1-7.62,30.77-2.68-8.41-10.82-21.17-10.22-29.96.29-4.26,9.32-19.03,11.58-24.47,1.46-3.52,2.07-7.32,3.46-10.85,3.9-1.99,12.22-2.23,15.44-4.39,2.53-1.7,1.99-5.97,4.34-6.74,2.02-.54,3.92-.1,5.9.28,6.16,1.19,4.55,4.47,7.5,9.1,3.13,4.91,17.27,22.08,23.7,18.02,2.86-8.41-6.78-17.02-13.04-21.29-2.05-1.4-10.97-5.67-11.34-6.2-2-2.85,3.03-8.1,5.41-9.47,3.4-1.96,7.97-2.4,11.71-3.98,11.11-4.69,20.58-16.94,31.05-22.47,2.34-1.23,5.45-.84,7.13-1.87,1.28-.79.98-3.74,3.63-4.97,2.22-1.03,4.02.42,5.95-.31,1.36-.51,2.02-2.91,3.45-4.05,5.61-4.47,7.98.82,11.78-.14,2.26-.57,6.49-4.49,9.25-5.59,2.08-.83,4.16-.46,6.17-1.21,4.73-1.76,5.46-7.65,12.26-6.69,1.97.28,8.66,2.72,9.48,4.43.62,10.61,2.23,23.1,8.77,31.82,5.22,6.97,12.82,7.25,11.91-2.66-.67-7.29-6.25-17.66-10.61-23.55-1.28-1.72-5.45-4.89-5.77-6.25-.63-2.65,1.64-6.05,4.26-6.56,2.16-.42,5.17,2.07,4.81-.62-4.71-3.75-10.9-.51-12.01,5.06-5.52-3-11.76-5.78-17.85-2.63-2.12,1.1-4.79,4.79-5.44,5.15-1.52.83-6.39.94-9.23,2.32s-4.83,5.1-8.26,4.21c-2.51-.65-2.14-2.14-6.5-1.46-5.96.93-7.05,5.59-8.69,6.1-2.76.87-5.37-1.09-7.74,2.44-.65.97-.77,2.91-1,3.1-.51.43-3.54-.11-5.39.62-8.5,3.36-20.8,17.28-29.62,22.05-8.08,4.37-20.92,4.04-22.1,16.2-13.06-7.04-11.69,3.27-15.71,5.96-2.33,1.55-9.81,1.9-12.88,3.26,4.39-22.19,9.19-45.02,20.48-64.85,4.39-7.72,11.68-15.58,15.7-23.05,1.44-2.67,2.28-7.6,3.44-9.25.65-.92,4.82-2.62,6.44-3.94,9.26-7.56,15.51-26.66,24.65-37.16,8.44-9.69,35.53-27.78,38.5-37.15,1.4-4.41,0-10.63-5.35-10.81-12.51-.41-33.16,25.72-45.43,30.19l-2.14-1.28c5.71-17.34,28.89-43.58,24.72-62.5-1.07-4.87-5.79-5.24-9.91-3.84-11.42,3.87-22.9,47.36-32.81,56.68.32-9.21-3.09-18.89-14.13-15.96-7.55,2-8.15,8.58-12.18,13.19-.22.25-2.03-2.38-3.91-2.95-17.04-5.1-15.1,15.38-18.48,25.29-2.3,6.75-6.01,12.55-7.62,20.06-3.02,14.08,1.34,25.08-4.42,38.94-4.2,10.1-13.88,20.5-19.84,29.99-11.2,17.84-20.68,38.11-27.88,57.92-4.4,12.13-13.81,37.35-15.44,49.14-1.76,12.82,1.81,18.82,13.28,24.07,18.82,8.63,48.26,9.71,66.76.13,1.44,4.52,8.9,18.47,13.42,19.35,7.69,1.49,19.21-3.92,27.68-4.58,13.88-1.07,27.62,2.98,40.63,1.87,4.78-.41,8.66-2.6,13.35-2.8,2.86,15.03,6.26,29.95,8.94,45.03,3.47,19.52,9.33,47.76,7.67,67.04-.95,11.03-1.85,22.1-2.78,33.2-.58,7-3.41,14.89-3.71,22.11-.35,8.28,1.96,15.27,2.79,23.12.5,4.69-.53,10,.09,14.66.46,3.45,2.75,6.44,2.76,10.22.01,4.12-2.46,9.4-2.83,13.86-.58,6.95,1.61,13.46.8,20.18-.52,4.34-3.04,8.22-3.59,12.55"/>
  <path class="cls-1" d="M186.2,636.98c.55-4.34,3.06-8.21,3.59-12.55.81-6.72-1.38-13.23-.8-20.18.37-4.45,2.84-9.73,2.83-13.86-.01-3.78-2.3-6.77-2.76-10.22-.62-4.66.4-9.97-.09-14.66-.83-7.84-3.13-14.84-2.79-23.12.3-7.22,3.13-15.11,3.71-22.11.92-11.1,1.82-22.17,2.78-33.2,1.67-19.27-4.2-47.52-7.67-67.04-2.68-15.08-6.08-30-8.94-45.03-4.69.2-8.57,2.4-13.35,2.8-13.02,1.11-26.75-2.94-40.63-1.87-8.47.65-19.99,6.07-27.68,4.58-4.52-.88-11.97-14.82-13.42-19.35-18.51,9.58-47.94,8.5-66.76-.13-11.47-5.26-15.04-11.25-13.28-24.07,1.62-11.8,11.03-37.02,15.44-49.14,7.19-19.81,16.68-40.08,27.88-57.92,5.96-9.49,15.64-19.88,19.84-29.99,5.76-13.86,1.39-24.86,4.42-38.94,1.61-7.51,5.32-13.31,7.62-20.06,3.38-9.92,1.44-30.39,18.48-25.29,1.88.56,3.7,3.19,3.91,2.95,4.02-4.62,4.63-11.19,12.18-13.19,11.04-2.93,14.45,6.75,14.13,15.96,9.91-9.31,21.39-52.8,32.81-56.68,4.12-1.4,8.84-1.03,9.91,3.84,4.17,18.92-19.01,45.15-24.72,62.5l2.14,1.28c12.27-4.47,32.91-30.59,45.43-30.19,5.35.17,6.74,6.4,5.35,10.81-2.97,9.37-30.07,27.45-38.5,37.15-9.14,10.5-15.39,29.6-24.65,37.16-1.62,1.32-5.79,3.02-6.44,3.94-1.16,1.64-2,6.58-3.44,9.25-4.02,7.47-11.31,15.33-15.7,23.05-11.29,19.83-16.09,42.66-20.48,64.85,3.07-1.36,10.55-1.71,12.88-3.26,4.03-2.68,2.65-12.99,15.71-5.96,1.19-12.16,14.03-11.84,22.1-16.2,8.82-4.77,21.12-18.7,29.62-22.05,1.85-.73,4.88-.19,5.39-.62.23-.19.35-2.13,1-3.1,2.37-3.53,4.98-1.57,7.74-2.44,1.64-.52,2.73-5.18,8.69-6.1,4.36-.68,3.98.81,6.5,1.46,3.44.89,5.53-2.88,8.26-4.21s7.71-1.49,9.23-2.32c.65-.35,3.33-4.05,5.44-5.15,6.08-3.15,12.33-.38,17.85,2.63,1.11-5.57,7.29-8.8,12.01-5.06.36,2.7-2.65.2-4.81.62-2.62.51-4.89,3.92-4.26,6.56.32,1.36,4.5,4.53,5.77,6.25,4.36,5.89,9.94,16.26,10.61,23.55.91,9.91-6.69,9.62-11.91,2.66-6.54-8.73-8.14-21.22-8.77-31.82-.82-1.71-7.51-4.15-9.48-4.43-6.8-.96-7.53,4.93-12.26,6.69-2.01.75-4.1.38-6.17,1.21-2.76,1.1-6.99,5.02-9.25,5.59-3.81.96-6.17-4.33-11.78.14-1.43,1.14-2.09,3.54-3.45,4.05-1.94.73-3.73-.73-5.95.31-2.64,1.23-2.35,4.18-3.63,4.97-1.68,1.04-4.79.64-7.13,1.87-10.47,5.53-19.94,17.77-31.05,22.47-3.74,1.58-8.31,2.02-11.71,3.98-2.37,1.37-7.41,6.62-5.41,9.47.37.53,9.3,4.8,11.34,6.2,6.26,4.28,15.9,12.89,13.04,21.29-6.43,4.06-20.57-13.11-23.7-18.02-2.95-4.62-1.34-7.91-7.5-9.1-1.98-.38-3.88-.82-5.9-.28-2.34.77-1.8,5.04-4.34,6.74-3.22,2.17-11.55,2.4-15.44,4.39-1.39,3.53-2,7.32-3.46,10.85-2.26,5.44-11.29,20.21-11.58,24.47-.6,8.8,7.54,21.55,10.22,29.96,8.59-7.66.8-22.59,7.62-30.77,6.18-2.5,10.64,14.32,14.12,18.71,9.45,11.92,25.5,2.35,35.77-3.79,35.16-21,65.99-45.37,104.94-61.15,56.79-23,106.94,14.8,158.39-35.87,2.74-2.7,12.91-16.44,16.06-15.88,3.69,1.1,2.95,5.06,2.62,8.27-1.99,19.42-28.11,67.62-39.2,85.34-25.89,41.39-60.46,76.16-90.27,114.55-6.56,8.45-19.59,24.72-22.9,34.3-7.26,20.99,23.96,1.8,30.93-2.28,43.25-25.38,98.67-70.08,126.12-112.13,9.38-14.37,28.07-49.49,31-65.67,2.82-15.57-5.69-39.13,5.52-53.52,1.3-1.66,3.78-1.87,4.03-4.02-.44-5.42-16.67-10.63-21.34-11.95-3.15-.89-12.34-3.26-15.1-3.35-4.14-.14-10.23,3.12-14.26,2.33-2.79-.55-3.84-2.73-5.74-3.56s-4.07-.58-5.98-1.4c-4.36-1.89-6.79-6.09-13.61-5.77-1.25,21.15-24.28,33.31-42.74,37.56-23.82,5.48-71.55,1.97-88.18-18.29-12.91-15.73,3.1-22.23,16.55-26.66l2.21,1.87c.02-1.11.92-2.12.86-3.25-.18-3.41-12.03-18.49-14.25-22.64,1.16-4.89-3.52-6.33-5.32-9.39-11.19-18.97-7.27-47.4-3.41-68.01,1.34-1.31,1.67.08,1.83,1.36.99,7.76-1.37,16.08-.96,24.04.24,4.61,3.49,21.75,7.4,23.97.87.5,1.78.61,2.74.39,1.11-2.85,2.64-7.42,4.73-9.57,1.74-1.79,18.51-11.45,20.77-11.54,3.99-.15,4.33,1.3,9.62-.06-5.75,1.22-10.5-3-16.01-3.61-7.59-4.53,12.51-25.87,2.65-37.93-3.69-4.51-13.51-6.52-18.98-5.07s-9.47,7.33-4.13,11.46c4.48-4.18,11.58-4.57,17.07-2.2,2.19.94,4.62,2.4,3.28,5.07-.8,1.49-7.8,4.61-9.28,4.61h-16.15c6.21-5.34-.75-7.35.02-13.29,1.63-12.52,29.57-9.25,32.79,1.25,1.76,5.73.13,14.74-1.92,20.32-1.72,4.67-5.44,8.17-4.08,13.82,3.58-.89,8.02,3.16,10.54,3.32,5.78.38,13-9.6,17.08-1.88.71,3.46-4.2-.73-5.75-.36-1.23.29-6.41,4.33-7.15,4.49,2.59-.67,6.37-2.55,8.33-2.39,3.78.3,22.67,7.78,25.76,10.29,5.02,4.08,6.11,10.82,5.6,17,4.23.7,4.46-3.67,6.45-5.99,2.83-3.28,6.72-6.59,9.08-10.3,5.91-9.27,8.36-21.6,7.44-32.51-10.11-1.72-18.64-7.79-27.19-12.96l-1.32-.05c-.25,7.26-10.79,7.35-11.1,0l-10.14,4.61,2.76-4.6-6.47-1.38c-6.31-10.79,13.47-15.84,20.82-16.16,6.47-.29,14.74,2.58,17.03,9.23-9.25-2.37-18.43-3.19-27.4.75l-6.74,4.78,12.91-1.83-.83,4.92,3.94,2.21,2.95-2.47-1.43-3.74c3.11-2.83,25.44,15.08,31.37,13.83.43-.42-2.01-10.11-2.5-11.79-2.75-9.31-7.86-15.12-6.65-25.49.41-3.53,2.68-8.19,2.72-12.11.12-12.35-10.5-22.54-21.27-26.69-14.7-5.66-17.13,1.42-30.25,3.86-14.11,2.63-24.85-2.18-35.24,10.9-11.24,14.16-9.98,32.89-12.13,49.68-.14,1.09-.31,4.76-2.19,4.25-1.15-.94-1.53-2.28-1.91-3.63-2.99-10.91-7.4-33.41-4.14-43.89,1.82-5.85,10.84-13.64,11.14-15.7.63-4.3-3.81-5.33-5.44-8.38-4.41-8.25,8.78-4.67,12.59-6.53,2.16-1.06,1.94-3.3,3.41-4.9,4.6-4.99,20.96-10.91,27.77-11.07s13.32,3.26,19.57,4.4c8,1.46,16.65.55,24.13,4.48,2,1.05,14.68,10.95,16.38,12.69,3.57,3.66,4.6,9.26,7.32,12.52,1.41,1.69,5.24,3.44,6.57,4.96,3.4,3.9,6.12,12.67,6.64,17.81.48,4.79-.09,32.07-1.83,34.84-1.17,1.87-4.79,2.21-4.51,5.17,9.83-8.84,14.06,5.04,13.9,13.39-.11,5.82-4.85,27.07-9.32,30.4-3.55,2.65-8.45.1-9.18-3.68-1.55-8.02,4.48-12.92,3.66-19.27-.51-3.95-6.08-8.73-2.76-14.37h-3.68s.93,12.91.93,12.91l1.84-.47c.98,10.22-2.91,19.75-1.84,29.97,2.56-.62-1.14-6.5,2.75-5.53,1.62,7.79-2.79,14.64-3.59,21.77-.84,7.5.35,19.59,2.41,26.91,1.2,4.26,4.52,13.26,9.07,13.96,12.87,1.98,21.1,5.31,32.97,10.44,1.75.75,2.86,2.88,5.04,3.33,3.22.66,6.65-1.37,9.94-1.68,8.49-.8,31.91,4.95,38.32,10.57,2.32,2.03,3.94,6.58,5.53,7.39,2.62,1.34,9.42,2.5,13.36,4.17,5.84,2.47,13.19,5.88,18.62,9.06s11.68,10.1,15.67,12.01c3.15,1.51,6.86,1.38,9.89,3.03s4.66,5.87,6.68,7.16c2.28,1.46,5.94,1.19,8.63,3.36,2.32,1.87,2.47,4.92,4.7,6.37,3.17,2.07,10.03,2.61,13.8,4.19-4.53-10.27-8.45-20.92-14.02-30.71-7.54-13.23-23.93-36.14-34.88-46.31-8.06-7.49-18.22-13.28-24.19-22.87-2.43-3.91-4-8.95-6.44-12.93-13.03-21.2-42.78-35.8-59.73-53.76-4.47-4.74-9.93-13.92-3.79-19.27,5.75-2.74,17.15,4.18,22.07,7.46,3.35,2.23,31.14,26.69,33.3,24.35-7.02-20.04-26.95-32.69-34.93-52.25-6.01-14.72.77-20.11,13.22-10.45,16.63,12.89,25.91,32.12,37.87,48.86.59-2.26-1.12-4.31-1.39-6.91-.71-6.87,2.63-12.53,9.78-13.36,8.14-.94,15.03,10.22,17.92,16.57,1.87-.77,1.8-3.87,3.27-5.48,3.4-3.73,8.7-3.21,12.73-.83,6.25,3.68,6.66,12.26,9.47,18.2,3.89,8.24,10.99,14.98,14.65,24.1,5.08,12.69,3.42,26.64,9.37,39.53.58,1.25,5.33,9.53,5.83,9.81,1.13.64,4.34-1.18,7.86,3.26,4.13,5.21,1.02,7.95,1.65,11.38.09.48,4.99,6.83,5.81,7.9,30.58,39.87,63.29,63.8,76.37,116.48,4.47,18,.8,23.93-15.32,31.33-24.18,11.11-53.01,5.38-77.22-2.94-1.71,5.07-9.31,17.99-14.51,19.18-8.55,1.96-22.74-5.13-32.16-5.37-5.43-.14-12,2.38-17.5,2.78-13.44.97-22.85-4.44-31.82-13.82-1.27,10.55-3.21,22.33-6.95,32.26-2.4,6.37-7.46,13.09-8.52,20.07-1.06,6.96,2.24,15.68,1.61,23.75-.6,7.58-6.41,20.51-6.31,25.86.05,2.45,2.18,7.01,2.52,10.24.44,4.21-.21,8.48.23,12.69,1.88,17.94,10.44,32.64,8.09,52.59-.44,3.78-2.36,7.12-2.71,11.13-.67,7.78,2.55,15.07,1.89,22.18-.5,5.45-5.4,11.81-5.53,15.78-.09,2.68,3.98,6.57,4.54,10.09,1,6.28-1.45,15.66-.9,23.04.27,3.56,1.41,6.99,1.97,10.48M367.08,101.99c0-5.35,6.53-8.27,8.37-11.47,2.81-4.9,1.95-31.91.44-38.36-2.68-11.45-6-9.3-11.58-16.1-2.29-2.79-2.97-6.8-5.55-10.14-4.4-5.69-17.51-15.76-24.66-16.87-3.32-.52-6.74.22-9.83-.32-16.04-2.82-23.52-8.87-40.59-1.63-7.35,3.12-7.56,5.4-12.07,10.07-3.44,3.56-9.85,2.68-14.35,2.73-1.37,1.22,5.41,6.16,5.98,7.39,3.02,6.54-5.1,10.32-8,15.03-6.66,10.78-3.85,22.42-1.37,34.01.45,2.12.32,4.73,2.01,6.29,1.68-14.86,2.5-30.23,11.69-42.73,11.05-15.02,22.35-10,37.87-12.88,9.11-1.69,14.95-7.32,24.19-6.1s23.42,11.5,27.18,19.87c4.73,10.52.53,17.58-.19,27.23-.47,6.4,3.94,11.86,5.88,17.82,1.58,4.83,1.95,9.69,3.19,14.36.23.86.23,2.08,1.39,1.81ZM536.91,121.37v17.99c0,1.45-3.88,8.69-5.99,8.85-1.59.13-3.98-.16-5.37-.96-1.54-.89-2.44-4.95-4.33-5.58-.33,7.7-4.97,15.49,1.25,21.8,2.04,2.07,5.49,3.21,7.52,4.94,11.94,10.19,9.38,35.39-9.74,31.87-7.18-1.32-23.43-12.8-26.92-19.22-6.18-11.37.48-21.07,3.43-32.01,2.95-10.94,1.47-27.95,18.9-23.07,3.55-8.6-9.31-29.45-17.9-28.59-11.03,1.1-5.74,14.7-4.24,21.21-4.93,4.87-18.22-20.51-20.28-23.54-5.74-8.44-20.08-27.17-29.51-30.46-1.81-.63-4.29-1.47-4.67.94-2.33,14.72,25.14,39.83,32.7,53.14,1.62,2.85,8.06,13.03.44,12.39-10.45-.88-30.15-25.22-43.58-30.15-17.96-6.59-10.05,8.08-2.48,15.39,15.72,15.18,45.01,32.49,56.15,49.96,2.49,3.9,4.04,8.96,6.45,12.93,7.56,12.47,19.65,18.22,29.39,28.28,6.61,6.83,10.84,15.84,17.4,22.73.46-10.35,13.89-11.86,21.22-17.52,5.02-3.87,8.91-9.51,11.53-15.22-12.25-15.17-8.87-34.19-16.15-51.18l-15.22-24.91ZM181.21,108.99c-10.03,6.15-23.8,20.96-33.11,24.57-11.35,4.39-7.22-6.16-4.52-11.89,7.07-15.07,23.61-33.87,21.44-51.55-.45-3.69-2.81-4.49-6.07-3.26-8.24,3.11-19.81,35.82-24.54,44.71-5.08,9.54-10.58,14.9-19.18,21.32,9.49,14.9,14.15,36.51,11.91,53.96,9.91-3.48,11.72-13.83,16.45-21.83,12.34-20.85,22.1-25.49,38.93-40.42,4.29-3.81,12.73-11.26,10.87-17.35s-9.47.08-12.17,1.73ZM340.32,78.02c-8.49-1.57-25.79-.69-28.6,9.21l8.12-5.25,20.48-3.96ZM264.64,98.31h13.38c.31,0,4.93-2.54,5.07-3.68-5.97-2.66-15.42-2.88-18.46,3.68ZM377.92,97.52c-3.06.6-5.98,5.63-6.26,8.62-.55,5.88,3.48,8.53,3.58,12.89.13,5.65-5.4,13.19-2.84,18.71,1.54,3.32,3.28,2.59,5.03-.04,2.89-4.35,6.75-18.81,7.18-24.18.36-4.52.31-17.37-6.69-15.99ZM535.76,115.64c2.47-4.96-15.18-18.14-17.15-2.78-.78,6.08,15,20.15,2.61,23.73,2.99,2.55,5.47,11.73,10.23,7.46s1.83-20.45,2.61-26.89c.21-1.72,1.59-1.27,1.7-1.51ZM119.45,109.66c-5.3-5.78-11.26.18-14.84,4.41-6.12,7.24-6.3,11.7-4.24,21.12,1.55-.45,1.61-2.43,3.2-3.71,5.23-4.19,9.46.15,10.65-.4.42-.19,6.71-5.61,6.92-6.03,1.42-2.9.68-12.82-1.69-15.4ZM87.66,155.28c-3.13-3.12-.16-14.24,1.18-18.22.99-2.94,7.88-15.14,7.73-16.02-.69-4.14-8.34-4.26-11.46-1.54-3.83,3.33-4.06,14.17-5.51,19.4-2.21,7.99-6.88,15.42-8.52,23.77-1.89,9.57-.19,18.38-1.17,27.43-1.59,14.59-20.04,35.42-27.85,48.72-14.58,24.83-24.54,52.23-32.8,79.76-3.43,11.43-11.21,27.41-.2,36.55,13.74,11.4,54.56,13.56,69.85,3.8l-11.32-30.01c-3,4.29-11.84,15.29-17.52,14.8-6.58-.56,4.69-12.04,6.88-14.36,2-2.12,8.05-6.2,8.79-7.85,1.11-2.47.59-9.83,1.67-14.01,1.36-5.24,5.14-11.25,9.42-14.56,1.77-1.37,5.55-2.43,6.42-3.73,1.59-2.36,5.15-23.56,6.49-28.56,6.77-25.36,14.36-35.87,27.62-57.26,1.9-3.07,5.52-7.67,4.7-10.98-17.11,8.68-27.67-2.92-23.55-20.3-5.17,3-5.38,12.1-11.98,12.91-1.26-11.79,11.48-18.51,12-29.96-2.78.99-8.48,2.61-10.87.23ZM523.05,133.36c.29-2.41-.32-4.49-1.11-6.72-.48-1.37-2.07-4.63-3.49-5.26.52,4.13.38,9.8,4.6,11.99ZM283.61,201.09c9.66,14.13,26.41,14.73,41.51,9.77,20.11-6.61,37.8-37.52,39.2-57.68.62-8.98-.22-18.21.92-27.2l-3.84,8.6c-2.41,4.87-6.63,8.34-9.95,12.4-3.52,4.31-4.58,11.14-11.99,9.38-1.28-6.23-.28-14.16-6.04-18.4-2.61-1.92-23.21-9.44-25.62-9.01-1.83.33-4.9,3.06-7.69,3.43-3.36.45-5.64-.91-8.17-.81-1.24.05-17.38,8.97-18.55,10.06-4.22,3.93-3.26,15.69-12.48,9.49l-7.33-18.69c.41,11.36,2.43,24,7.85,34.11,4.76,8.88,19.4,14.02,20.67,24.54.55,4.55-1.09,6.2,1.51,10ZM505.8,128.1c-4.1,2.99-4.94,16.13-6.24,20.96-5.4,19.96-12.9,26.83,7.52,41.31,6.36,4.51,16.68,11.49,23.84,4.8,3.97-3.71,3.85-11.68,2.8-16.67-1.95-9.29-14.6-10.35-16.69-18.37-2.55-9.77,5.05-20.55-1.15-30.22-2.08-3.24-6.9-4.13-10.09-1.81ZM95.76,127.83c-1.55,4.36-12.28,24.64-4.14,25.87s5.93-7.39,5.96-12.49l-1.83-13.38ZM111.43,132.44c-8.15-1.68-9.96,6.48-10.14,12.91l10.14-12.91ZM103.39,190.29c3.93,4,20.28,2.22,21.7-4.09,1.95-8.71-2.46-27.99-5.1-36.94-1.46-4.97-3.4-9.49-5.79-14.05l-12,15.27c-.62,3.04,1.44,5.6,1.78,8.33,1.11,8.84-3.99,14.65-3.67,22.08.1,2.23,1.64,7.95,3.08,9.41ZM95.75,170.24c6.49-1.52,5.73-8.54,5.53-13.82l-5.53,13.82ZM376.31,205.32c-6.6-2.32-8.55-9.87-10.47-15.83l-3.35-18.31c-9.24,23.09-24.42,43.39-51.25,45.17-13.76.92-21.63-4.52-30.89-13.82l-6.58,7.83c.17,5.85,11.99,12.5,17.01,14.47,25.99,10.2,58.57,5.73,79.56-13.05,2.18-1.95,3.18-5.03,5.97-5.58v-.89ZM280.33,196.07c-.88-7.56-5.01-13.15-11.06-17.52l8.78,15.69,2.28,1.83ZM576.3,200.98c-.61-.75-2.3-1.12-2.94-2.13-.53,2.25,3.05,6.46,5.07,8.3.04-1.97-.92-4.68-2.13-6.17ZM539.03,225.87c-4.83,5.55,4.15,6.57,8.4,6.08,9.6-1.1,26.47-11.64,29.61-21.12l-7.81-10.14c-2.23,8.7-11.89,14.51-19.11,19.19-2.71,1.75-9.33,3.98-11.08,5.99ZM275.71,204.39c-10.85,3.02-26.95,9.15-15.27,22.17,14.81,16.52,54.78,22.04,75.71,19.31,19.06-2.49,51.43-14.32,50.3-37.8l-8.57-.98c-20.68,25.11-58.55,32.02-88.31,19.86-5.74-2.34-21.6-11.09-18.01-18.88.93-2.01,3.65-1.94,4.15-3.7ZM580.27,214.53c-1.21-.87-5.45,5.19-6.88,6.47-8.85,7.97-23.26,16.58-35.55,12.9,5.06,7.11,10.24,14.32,14.32,22.11s8.52,23.53,12.57,28.95c1.42,1.9,4.83,3.83,6.81,6.11,7.08,8.17,9.81,19.93,11.07,30.44,8.17,6.53,17.34,12.03,24,20.29,2.49,3.09,5.49,6.45.73,9.09-11.99-2.22-17.8-15.37-25.19-23.84-.74,12.19-5.92,23.3-10.08,34.51.35,1.39,12.93,4.35,15.41,4.88,23.99,5.13,45.2,6.7,66.95-6.33,7.58-4.54,7.92-10.12,6.83-18.52-1.52-11.8-12.12-35.71-18.06-46.51-16.63-30.22-43.36-52.73-62.93-80.55ZM252.63,257.87c5.04-3.43-7.91-29.21-13.82-31.36-.34,6.89,1.3,14.92,4.14,21.22,1.01,2.24,6.73,12.15,9.68,10.14ZM188.96,636.98h272.26c-.32-3.81-1.65-7.69-1.88-11.49-.43-7.06,1.86-16.09.9-22.12-.62-3.86-4.61-6.61-4.61-10.2,0-2.81,2.83-6.29,3.78-9.19,3.82-11.62-.89-18.01-.07-28.67.33-4.28,2.38-8.46,2.79-12.88,1.8-19.7-6.48-33.92-8.17-51.76-.53-5.61-2.24-19.18-2.03-23.88.32-7.2,5.05-16.57,5.59-24.9.53-8.25-1.83-16.11-.67-24.65,1.07-7.9,7.89-18.6,10.37-27.45,1.14-4.06,5.39-22.36,4.85-25.26-.13-.68-6.4-9-7.64-11.61-7.24-15.3-8.04-34.08-7.81-50.76,1.68.46,2.28,2.91,2.54,4.37,1.09,6.33.33,14.79,1.27,21.8,1.55,11.65,5.17,21.82,10.97,31.93,1.6.22.87-2.1.91-3.21.83-22.67-7.68-40.89-12.93-62.28-2.87-.65-1.7,3.62-2.72,6.05-31.5,75.41-86.1,127.99-155.74,169.03-8.09,4.77-43.24,26.31-35.56.44,3.19-10.74,18.67-30.1,26.07-39.44,44.3-55.94,88.34-98.82,116.42-166.82,4.13-9.99,9.54-22.22,9.53-32.91-6.57,5.37-11.25,12.81-17.51,18.43-50.16,45.02-99.62,11.05-154.31,32.14-37.97,14.64-70.49,39.97-104.45,60.72-23.78,14.53-39.2,17.03-49.1-13.47l-3.2.86c-.87,6.89.01,13.65-1.62,20.52-.98,4.12-2.91,6.48-4.25,10.19,3.06,3.87,7.73,15.93,11.9,17.72,4.43,1.9,10.81-1.97,15.49-2.93,3.86-.79,8.81-1.83,12.66-2.11,17.66-1.29,35,5.26,52.14-.94-2.52-12.02-4.56-26.62-1.24-38.58,2.19-7.87,7.73-13.25,10.88-2.89,1.81,5.96,2.75,17.18,2.23,23.37-.58,6.82-3.08,15.03-9.15,18.64,3.49,15.35,7.22,30.78,9.94,46.29,3.25,18.49,9,48.16,7.62,66.15-.37,4.88-2.35,10.22-2.75,14.78-.54,6.24.5,13.09-.02,19.35-.59,7.08-3.3,14.04-3.72,21.19-.6,10.3,2.57,18.45,2.85,27.68.1,3.35-1.11,6.48-.94,9.14.25,3.81,3.74,8.02,3.73,13.02-.01,5.25-3.59,12.11-3.66,17.62s2.7,10.87,1.68,17.37c-.31,2.01-4.66,10.62-3.63,11.59ZM578.44,320.59c-2.54-4.97-6.03-10.08-8.47-15.04-2.01-4.08-6.3-16.84-8.56-19.12-3.22-3.25-10.66-3.31-14.67-5.63-3.03-1.76-4.76-5.96-6.69-7.15-2.11-1.31-4.92-.75-7.2-2.03-2.41-1.37-4.05-5.98-7.09-7.67s-6.91-1.17-10.01-2.91-7.22-6.94-10.28-9.1c-3.22-2.27-34.62-17.67-35.93-16.19.3,6.94-.13,13.64-1.2,20.48-1.56,10-6.41,20.67-7.81,30-1.22,8.08,5.48,21.37,7.82,29.56,4.64,16.25,7.94,31.28,6.92,48.43,5.09,5.3,14.17,12.46,21.58,13.48,9.89,1.36,20.44-2.66,31.33-1.8,7.17.57,22.36,6.58,28.1,4.16,3.81-1.61,9.04-13.28,12.01-16.59-12.09-5.6-9.8-13.34-6.22-23.74,2.52-7.33,6.72-21.2,16.38-19.15ZM460.29,279.09c2.11-10.31,5.77-21.3,6.46-31.83.11-1.61.61-10.62-1.37-10.58-7.96,9.61-6.94,23.61-6.91,35.48l1.82,6.92ZM140.97,304.92c2.17-6.5-19.89-23.09-22.15-21.2.67,4.57,18.41,24.78,22.15,21.2ZM578.43,314.15c-1.1-8.86-5.06-18.18-11.98-23.98l11.98,23.98ZM82.83,292.94c-9.68,3.52-14.56,14.06-13.83,23.97,7.96-4.83,10.15-15.9,13.83-23.97ZM579.36,323.37c-2.67.08-5.39-.75-7.44,1.34-3.18,3.23-10.85,24.03-10.08,28.58.5,2.92,4.8,8.18,8.23,6.93,4.02-12.01,9.59-23.88,9.28-36.85ZM52.38,339.97c1.78,1.77,15.11-12.35,14.75-15.68-.63-.7-11.21,9.94-11.98,10.88-.65.8-3.44,4.14-2.77,4.8ZM176.97,369.48c1.47.32,1.9-.45,2.77-1.38,6.59-7.05,5.08-31.84.45-40.12-3.1-.75-4.87,12.91-5.05,15.23-.69,8.84.39,17.61,1.84,26.27ZM607.04,348.27c2.2-2.1-16.82-18.43-19.37-19.37l9.54,13.51,9.82,5.85Z"/>
  <path class="cls-2" d="M416.3,233.38c-.61,9.16-4.79,19.21-8.5,28.16l-.87,2.11c-21.74,52.65-53.32,90.5-86.76,130.56-9.64,11.55-19.61,23.5-29.52,36.01l-.6.76c-7.86,9.92-22.49,28.38-25.64,39.02-1.58,5.32-1.51,9.03.21,11.34,1.21,1.63,3.2,2.45,5.89,2.45,8.84,0,23.7-8.8,30.04-12.56l.88-.52c37.02-21.81,67.24-45.3,92.39-71.8,26.4-27.82,46.65-58.3,61.77-93.03-.04,15.65,1.12,33.04,7.94,47.46.73,1.55,3,4.79,4.99,7.64,1.1,1.57,2.34,3.35,2.58,3.81.38,2.76-3.46,19.8-4.84,24.72-1.07,3.81-3,8.06-4.87,12.18-2.42,5.32-4.91,10.83-5.54,15.41-.65,4.82-.21,9.43.21,13.89.35,3.7.69,7.2.45,10.84-.27,4.13-1.6,8.57-2.9,12.87-1.3,4.31-2.52,8.39-2.69,12.05-.16,3.62.78,12.34,1.48,18.71.23,2.11.43,3.94.56,5.31.68,7.13,2.42,13.77,4.1,20.19,2.53,9.66,5.15,19.65,4.08,31.39-.19,2.1-.79,4.21-1.37,6.25-.61,2.16-1.24,4.38-1.42,6.65-.34,4.37.23,8.02.77,11.55.81,5.21,1.57,10.13-.66,16.89-.34,1.04-.96,2.19-1.61,3.4-1.09,2.03-2.22,4.13-2.22,6.1,0,2.19,1.22,4.03,2.4,5.8,1.01,1.51,1.96,2.94,2.22,4.56.5,3.12.09,7.11-.35,11.33-.37,3.61-.76,7.35-.56,10.69.12,2.06.56,4.14.98,6.15.3,1.41.6,2.86.79,4.28H189.85c.25-1.32,1.44-4.25,2.12-5.93.92-2.25,1.48-3.67,1.61-4.5.62-3.96-.09-7.43-.78-10.79-.47-2.32-.92-4.51-.89-6.72.03-2.63.94-5.7,1.82-8.67.9-3.05,1.83-6.2,1.84-8.96,0-2.98-1.14-5.68-2.14-8.06-.76-1.8-1.48-3.5-1.58-5.03-.08-1.18.16-2.55.41-3.99.29-1.63.58-3.31.53-5.11-.12-4.01-.79-7.87-1.43-11.61-.86-5.01-1.76-10.19-1.42-15.98.21-3.64,1.06-7.33,1.87-10.9.76-3.35,1.56-6.8,1.84-10.27.26-3.17.13-6.5,0-9.73-.12-3.21-.25-6.53.01-9.62.19-2.13.73-4.43,1.3-6.87.61-2.61,1.25-5.32,1.45-7.92,1.26-16.47-3.33-42.23-6.68-61.05-.33-1.87-.65-3.66-.95-5.36-2.24-12.75-5.2-25.61-8.05-38.05-.58-2.54-1.17-5.07-1.74-7.6,7.07-4.72,8.66-14.82,9.01-19.03.51-6.02-.36-17.45-2.27-23.74-1.3-4.27-3.14-6.44-5.45-6.44-3.51,0-6.15,5.03-7.35,9.35-3.46,12.45-1.13,27.58,1.05,38.19-4.77,1.61-9.88,2.37-16.01,2.37-4.89,0-9.91-.49-14.77-.96-4.97-.48-10.12-.98-15.24-.98-1.77,0-3.42.06-5.04.18-3.74.27-8.47,1.24-12.27,2.02l-.52.11c-1.53.31-3.18.9-4.91,1.53-2.61.94-5.3,1.9-7.62,1.9-.9,0-1.67-.14-2.36-.44-2.36-1.01-5.28-6.47-7.63-10.85-1.27-2.37-2.48-4.63-3.54-6.11.49-1.26,1.05-2.39,1.6-3.48.93-1.85,1.89-3.77,2.49-6.32.99-4.15,1.08-8.29,1.17-12.29.06-2.52.11-5.11.4-7.67l1.63-.44c5.41,16.14,12.77,23.66,23.11,23.66,6.84,0,15.21-3.25,27.16-10.55,9.5-5.8,19.05-12.08,28.29-18.14,23.96-15.73,48.73-31.99,75.99-42.5,17.52-6.75,34.22-7.66,48.24-7.66,5.57,0,11.19.17,16.62.33,5.35.16,10.89.32,16.3.32,10.11,0,23.44-.5,36.81-4.42,13.37-3.92,25.36-10.75,36.66-20.89,2.94-2.64,5.56-5.7,8.09-8.66,2.42-2.83,4.91-5.73,7.67-8.26M458.61,295.82c1.45,5.79,3.14,11.39,4.77,16.82,4.38,14.55,8.52,28.29,7.93,44.37-.01.34.03.7.07,1.09,0,.03,0,.06,0,.09-5.37-9.75-8.55-19.33-9.96-30-.44-3.28-.5-6.95-.55-10.49-.07-4.09-.13-7.95-.72-11.34-.45-2.6-1.34-4.25-2.65-4.93.03-.07.06-.15.09-.22.41-.98.51-2.16.6-3.19.11-1.23.21-1.93.42-2.19M417.38,231.12c-6.57,5.37-11.25,12.81-17.51,18.43-24.21,21.73-48.25,25.06-72.8,25.06-10.86,0-21.81-.65-32.92-.65-15.82,0-31.97,1.32-48.6,7.73-37.97,14.64-70.49,39.97-104.45,60.72-10.4,6.35-19.2,10.41-26.64,10.41-9.57,0-16.89-6.71-22.46-23.87l-3.2.86c-.87,6.89.01,13.65-1.62,20.52-.98,4.12-2.91,6.48-4.25,10.19,3.06,3.88,7.73,15.93,11.9,17.72.85.37,1.78.52,2.75.52,4.07,0,8.96-2.68,12.74-3.45,3.86-.79,8.81-1.83,12.66-2.11,1.66-.12,3.31-.17,4.96-.17,10.1,0,20.1,1.94,30.01,1.94,5.75,0,11.47-.65,17.16-2.72-2.52-12.02-4.56-26.62-1.24-38.58,1.32-4.76,3.88-8.61,6.38-8.61,1.64,0,3.25,1.64,4.5,5.73,1.81,5.96,2.75,17.18,2.23,23.37-.58,6.82-3.08,15.03-9.15,18.64,3.49,15.35,7.22,30.78,9.94,46.29,3.25,18.49,9,48.16,7.62,66.15-.37,4.88-2.35,10.22-2.75,14.78-.54,6.24.5,13.09-.02,19.35-.59,7.08-3.3,14.04-3.72,21.19-.6,10.3,2.57,18.45,2.85,27.68.1,3.35-1.11,6.48-.94,9.14.26,3.81,3.74,8.02,3.73,13.02-.01,5.25-3.59,12.11-3.66,17.62-.07,5.55,2.7,10.87,1.68,17.37-.31,2.01-4.66,10.62-3.63,11.59h272.26c-.32-3.81-1.65-7.69-1.88-11.49-.42-7.06,1.86-16.09.9-22.12-.62-3.86-4.61-6.61-4.61-10.2,0-2.81,2.83-6.29,3.78-9.19,3.82-11.62-.89-18.01-.07-28.67.33-4.28,2.38-8.46,2.79-12.88,1.8-19.7-6.48-33.92-8.17-51.76-.53-5.61-2.24-19.18-2.03-23.88.32-7.2,5.05-16.57,5.59-24.9.53-8.25-1.83-16.11-.67-24.65,1.07-7.9,7.89-18.6,10.37-27.45,1.14-4.06,5.39-22.36,4.85-25.26-.13-.68-6.4-9-7.64-11.61-7.24-15.3-8.04-34.08-7.81-50.76,1.68.46,2.28,2.91,2.54,4.37,1.09,6.33.33,14.79,1.27,21.8,1.55,11.65,5.17,21.82,10.97,31.93.07,0,.14.01.2.01,1.34,0,.67-2.16.71-3.23.83-22.67-7.68-40.89-12.93-62.28-.2-.04-.38-.07-.54-.07-2.18,0-1.23,3.85-2.18,6.12-31.5,75.41-86.1,127.99-155.74,169.03-5.17,3.05-21.38,12.94-30.41,12.94-5.1,0-7.92-3.16-5.14-12.5,3.19-10.74,18.67-30.1,26.07-39.44,44.3-55.94,88.34-98.82,116.42-166.82,4.13-9.99,9.54-22.22,9.53-32.91h0Z"/>
  <path class="cls-2" d="M470.58,236.75c1.95.47,7.17,2.51,16.94,7.13,8.59,4.06,16.05,7.94,17.38,8.87,1.3.92,2.9,2.51,4.45,4.05,2.01,2.01,4.1,4.08,5.92,5.1,1.7.95,3.55,1.27,5.33,1.57,1.69.29,3.28.56,4.68,1.34,1.41.79,2.55,2.39,3.65,3.94,1.08,1.53,2.11,2.98,3.43,3.73,1.29.73,2.65.93,3.97,1.12,1.19.17,2.31.34,3.2.89.68.42,1.45,1.47,2.26,2.58,1.2,1.64,2.57,3.5,4.45,4.59,1.82,1.05,4.26,1.66,6.62,2.25,3.04.76,6.18,1.54,7.84,3.22,1.32,1.33,3.77,7.55,5.56,12.08,1.07,2.72,2.09,5.3,2.81,6.77,1.3,2.64,2.91,5.35,4.47,7.97,1.06,1.79,2.15,3.62,3.14,5.43-.04,0-.08,0-.12,0-8.63,0-12.66,11.85-15.07,18.94l-.37,1.09c-3.23,9.4-6.29,18.3,5.61,24.42-.99,1.35-2.12,3.25-3.38,5.38-2.39,4.03-5.37,9.05-7.46,9.93-.78.33-1.85.49-3.18.49-3.84,0-9.11-1.33-14.2-2.61-3.9-.98-7.58-1.91-10.25-2.12-1.05-.08-2.16-.13-3.29-.13-4.22,0-8.38.58-12.41,1.14-3.93.55-7.63,1.06-11.3,1.06-1.53,0-2.93-.09-4.27-.28-6.51-.9-15.02-7.06-20.69-12.87.92-16.59-2.13-31.33-6.98-48.32-.69-2.42-1.75-5.27-2.87-8.28-2.69-7.21-5.74-15.39-4.92-20.86.68-4.55,2.19-9.37,3.77-14.47,1.59-5.12,3.24-10.41,4.04-15.53,1.05-6.75,1.46-13.18,1.25-19.63M469.9,235.65c-.18,0-.3.03-.36.1.3,6.94-.13,13.64-1.2,20.48-1.56,10-6.41,20.67-7.81,30-1.22,8.08,5.48,21.37,7.82,29.56,4.64,16.25,7.94,31.28,6.92,48.43,5.09,5.3,14.17,12.46,21.58,13.48,1.46.2,2.93.28,4.41.28,7.6,0,15.55-2.21,23.71-2.2,1.07,0,2.14.04,3.21.12,5.98.47,17.53,4.73,24.53,4.73,1.4,0,2.61-.17,3.57-.57,3.81-1.61,9.04-13.28,12.01-16.59-12.09-5.6-9.8-13.34-6.22-23.74,2.35-6.83,6.16-19.36,14.49-19.36.6,0,1.23.07,1.89.2-2.54-4.97-6.03-10.08-8.47-15.04-2.01-4.08-6.3-16.84-8.56-19.12-3.22-3.25-10.66-3.31-14.67-5.63-3.03-1.76-4.76-5.96-6.69-7.15-2.11-1.31-4.92-.75-7.2-2.03-2.41-1.37-4.05-5.98-7.09-7.67-3.11-1.73-6.91-1.17-10.01-2.91-3.08-1.72-7.22-6.94-10.28-9.1-3.07-2.17-31.82-16.29-35.57-16.29h0Z"/>
  <path class="cls-2" d="M90.87,118.66h0c1.93,0,4.29.63,4.69,2.41-.26.85-2.03,4.28-3.47,7.06-1.81,3.5-3.69,7.11-4.19,8.62-.52,1.55-4.97,15.23-.93,19.25,1.02,1.01,2.55,1.53,4.55,1.53s4.12-.49,5.89-1.03c-.64,4.42-3.15,8.12-5.79,12.02-3.33,4.91-6.78,10-6.07,16.62l.11,1.01,1.01-.12c4.26-.52,6.11-3.96,7.9-7.29.77-1.43,1.51-2.81,2.42-3.94-.99,6.62.16,12.52,3.29,16.48,2.63,3.33,6.43,5.09,10.99,5.09,3.08,0,6.4-.81,9.9-2.4-.27,2.24-2.14,5.08-3.57,7.25-.39.59-.75,1.14-1.07,1.65-1.34,2.16-2.61,4.2-3.84,6.16-11.08,17.72-17.76,28.42-23.89,51.37-.49,1.82-1.24,5.63-2.11,10.04-1.33,6.72-3.34,16.87-4.24,18.22-.34.5-1.78,1.17-2.94,1.71-1.18.55-2.4,1.12-3.26,1.79-4.32,3.34-8.34,9.55-9.78,15.1-.55,2.12-.7,4.89-.84,7.58-.14,2.54-.28,5.17-.78,6.27-.33.74-2.8,2.71-4.6,4.15-1.61,1.28-3.12,2.49-4,3.42l-.37.39c-6.97,7.33-9.55,11.49-8.64,13.91.27.71.97,1.58,2.78,1.74.15.01.3.02.46.02,5.93,0,13.95-9.87,16.87-13.74l10.38,27.51c-6.11,3.58-16.42,5.62-28.5,5.62-16.84,0-32.34-3.83-39.49-9.76-8.88-7.37-4.8-19.49-1.2-30.19.62-1.86,1.21-3.61,1.72-5.3,10.11-33.72,20.2-58.25,32.7-79.54,2.32-3.94,5.6-8.59,9.09-13.52,8.32-11.77,17.76-25.12,18.9-35.6.43-3.93.35-7.87.28-11.67-.09-5.06-.19-10.29.87-15.67.9-4.56,2.77-8.95,4.57-13.19,1.45-3.4,2.94-6.91,3.93-10.5.46-1.65.79-3.81,1.15-6.09.74-4.79,1.67-10.75,4.05-12.82,1.13-.98,3.08-1.59,5.1-1.59M90.87,117.66c-2.14,0-4.39.65-5.75,1.84-3.83,3.33-4.06,14.17-5.51,19.4-2.21,7.99-6.88,15.42-8.52,23.77-1.89,9.57-.19,18.38-1.17,27.43-1.59,14.59-20.04,35.42-27.85,48.72-14.58,24.83-24.54,52.23-32.8,79.76-3.43,11.43-11.21,27.41-.2,36.55,7.83,6.5,24.45,9.99,40.12,9.99,11.84,0,23.15-1.99,29.73-6.2l-11.32-30.01c-2.94,4.19-11.46,14.82-17.15,14.82-.13,0-.25,0-.37-.02-6.58-.56,4.69-12.04,6.88-14.36,2-2.12,8.05-6.2,8.79-7.85,1.11-2.47.59-9.83,1.67-14.01,1.36-5.24,5.14-11.25,9.42-14.56,1.77-1.37,5.55-2.43,6.42-3.73,1.59-2.36,5.15-23.56,6.49-28.56,6.77-25.36,14.36-35.87,27.62-57.26,1.9-3.07,5.52-7.67,4.7-10.98-4,2.03-7.63,2.95-10.81,2.95-10.43,0-15.9-9.93-12.74-23.25-5.17,3-5.38,12.1-11.98,12.91-1.26-11.79,11.48-18.51,12-29.96-1.72.61-4.55,1.47-7.03,1.47-1.53,0-2.93-.33-3.84-1.24-3.13-3.12-.16-14.24,1.18-18.22.99-2.94,7.88-15.14,7.73-16.02-.39-2.33-2.97-3.38-5.71-3.38h0Z"/>
  <path class="cls-2" d="M579.77,215.57c8.02,11.34,17.35,21.95,26.38,32.22,13,14.8,26.45,30.1,36.17,47.77,5.63,10.22,16.44,34.39,17.95,46.16,1.11,8.64.44,13.47-6.36,17.54-11.33,6.79-22.98,9.96-36.66,9.96-8.34,0-17.46-1.15-29.57-3.74-4.9-1.05-12.64-3.12-14.46-4.16.68-1.81,1.39-3.64,2.07-5.41,3.26-8.41,6.63-17.09,7.63-26.32,1.33,1.68,2.64,3.49,3.99,5.37,5.39,7.49,10.96,15.23,20.22,16.94l.35.07.31-.17c1.71-.95,2.7-2.11,2.97-3.46.46-2.37-1.35-4.61-3.11-6.77l-.3-.37c-4.9-6.08-11.17-10.72-17.25-15.21-2.18-1.61-4.44-3.28-6.59-4.99-1.7-13.79-5.39-23.79-11.26-30.57-1.03-1.19-2.37-2.25-3.67-3.27-1.26-.99-2.44-1.92-3.09-2.79-2.24-3-4.72-9.57-7.13-15.92-1.87-4.95-3.64-9.62-5.36-12.89-3.7-7.06-8.32-13.68-12.87-20.08,1.24.21,2.52.31,3.83.31,3.39,0,15.58-1.01,30.05-14.03.48-.43,1.17-1.26,1.98-2.22.95-1.14,2.84-3.39,3.74-3.96M579.99,214.45c-1.48,0-5.27,5.36-6.6,6.56-7.4,6.66-18.69,13.77-29.38,13.77-2.09,0-4.16-.27-6.17-.87,5.06,7.11,10.24,14.32,14.32,22.11,3.96,7.55,8.52,23.53,12.57,28.95,1.42,1.9,4.83,3.83,6.81,6.11,7.08,8.17,9.81,19.93,11.07,30.44,8.17,6.53,17.34,12.03,24,20.29,2.49,3.09,5.49,6.45.73,9.09-11.99-2.22-17.8-15.37-25.19-23.84-.74,12.19-5.92,23.3-10.08,34.51.35,1.39,12.93,4.35,15.41,4.88,10.36,2.21,20.19,3.76,29.78,3.76,12.62,0,24.81-2.69,37.18-10.1,7.58-4.54,7.92-10.12,6.83-18.52-1.52-11.8-12.12-35.71-18.06-46.51-16.63-30.22-43.36-52.73-62.93-80.55-.08-.06-.17-.08-.28-.08h0Z"/>
  <path class="cls-2" d="M440.91,64.92c.73,0,1.75.36,2.5.62,8.87,3.09,22.86,21.03,29.01,30.08.31.46.96,1.57,1.77,2.97,6.55,11.23,13.25,21.63,17.87,21.63.82,0,1.57-.31,2.17-.91l.4-.39-.12-.54c-.2-.85-.45-1.82-.73-2.84-1.28-4.79-3.03-11.35-.67-14.77.95-1.37,2.51-2.15,4.76-2.38.14-.01.28-.02.42-.02,3.25,0,7.62,3.52,11.41,9.19,4.24,6.34,6.33,13.22,5.31,17.22-1.77-.43-3.4-.65-4.87-.65-9.88,0-11.52,9.5-12.97,17.89-.42,2.41-.81,4.69-1.37,6.78-.69,2.54-1.59,5.06-2.47,7.5-2.86,7.95-5.81,16.17-.88,25.25,3.55,6.53,20.07,18.33,27.61,19.72,1.27.23,2.5.35,3.68.35,6.24,0,11.07-3.41,13.26-9.35,3.07-8.32.33-18.9-6.37-24.62-.98-.84-2.25-1.53-3.47-2.21-1.45-.8-2.95-1.63-3.98-2.67-4.04-4.11-3.09-8.8-1.98-14.24.32-1.55.64-3.13.84-4.73.28.43.54.93.78,1.37.66,1.23,1.28,2.39,2.23,2.94,1.44.83,3.58,1.13,5.11,1.13.29,0,.58-.01.84-.03,1.29-.1,2.82-1.59,4.55-4.42.81-1.33,2.35-4.17,2.35-5.43v-14.43l13.33,21.82c2.87,6.73,4.07,13.92,5.24,20.87,1.72,10.25,3.49,20.85,10.64,29.99-2.81,5.93-6.69,10.98-10.97,14.29-2.25,1.74-5.22,3.12-8.08,4.46-5.82,2.72-11.82,5.52-13.23,11.59-2.58-2.98-4.85-6.31-7.06-9.55-2.71-3.98-5.52-8.1-8.92-11.62-3.69-3.81-7.74-7.03-11.66-10.15-6.66-5.3-12.96-10.3-17.59-17.95-1.12-1.85-2.08-4.01-3.01-6.1-1.04-2.34-2.11-4.75-3.45-6.84-7.11-11.15-21.26-22.04-34.94-32.57-8.01-6.17-15.57-11.99-21.36-17.57-5.16-4.99-8.96-11.76-7.97-14.22.11-.28.45-1.12,2.55-1.12,1.67,0,3.98.54,6.87,1.6,6.21,2.28,13.94,8.94,21.41,15.39,8.55,7.37,16.62,14.33,22.43,14.82.26.02.51.03.74.03,1.7,0,2.88-.56,3.52-1.67,1.48-2.56-.74-7.08-3.36-11.58-.15-.25-.28-.47-.38-.66-2.5-4.4-7.15-10.08-12.07-16.09-9.81-11.99-22.02-26.9-20.52-36.4.1-.66.35-.77.85-.77M440.91,63.92c-.91,0-1.65.39-1.84,1.61-2.33,14.72,25.14,39.83,32.7,53.14,1.57,2.77,7.68,12.42,1.1,12.42-.21,0-.43,0-.66-.03-10.45-.88-30.15-25.22-43.58-30.15-3.16-1.16-5.51-1.66-7.21-1.66-7.97,0-1.51,11.02,4.73,17.05,15.72,15.18,45.01,32.49,56.15,49.96,2.49,3.9,4.04,8.96,6.45,12.93,7.56,12.47,19.65,18.22,29.39,28.28,6.61,6.83,10.84,15.84,17.4,22.73.46-10.35,13.89-11.86,21.22-17.52,5.02-3.87,8.91-9.51,11.53-15.22-12.25-15.17-8.87-34.19-16.15-51.18l-15.22-24.91v17.99c0,1.45-3.88,8.69-5.99,8.85-.24.02-.49.03-.76.03-1.52,0-3.43-.31-4.61-.99-1.54-.89-2.44-4.95-4.33-5.58-.33,7.7-4.97,15.49,1.25,21.8,2.04,2.07,5.49,3.21,7.52,4.94,11.17,9.53,9.65,32.2-6.24,32.2-1.1,0-2.26-.11-3.5-.34-7.18-1.32-23.43-12.8-26.92-19.22-6.18-11.37.48-21.07,3.43-32.01,2.6-9.61,1.77-23.93,13.38-23.93,1.59,0,3.42.27,5.53.86,3.48-8.43-8.79-28.62-17.38-28.62-.18,0-.35,0-.52.03-11.03,1.1-5.74,14.7-4.24,21.21-.43.42-.92.62-1.47.62-5.7,0-16.94-21.4-18.81-24.15-5.74-8.44-20.08-27.17-29.51-30.46-.89-.31-1.94-.67-2.83-.67h0Z"/>
  <path class="cls-2" d="M308.04,129.93c3.06,0,22.51,7.16,24.78,8.83,3.93,2.89,4.45,7.86,4.95,12.67.18,1.71.36,3.48.7,5.13l.13.62.62.15c.87.21,1.7.31,2.46.31,4.44,0,6.38-3.32,8.25-6.52.7-1.21,1.43-2.46,2.29-3.51,1.04-1.27,2.19-2.51,3.31-3.72,2.48-2.67,5.05-5.43,6.78-8.91l1.44-3.21c-.16,3.3-.16,6.61-.16,9.85,0,3.78,0,7.7-.26,11.48-.69,9.89-5.33,22.4-12.43,33.44-7.76,12.08-17.02,20.37-26.09,23.35-5.6,1.84-10.99,2.77-16.02,2.77-10.64,0-18.83-4.09-24.35-12.16-1.49-2.18-1.41-3.47-1.29-5.42.07-1.14.15-2.44-.05-4.13-.79-6.49-6.24-10.97-11.52-15.3-3.78-3.1-7.36-6.03-9.26-9.59-4.58-8.54-6.54-18.77-7.33-27.33l5,12.74.11.29.26.17c1.94,1.31,3.59,1.94,5.03,1.94,3.4,0,4.76-3.45,5.95-6.49.76-1.93,1.54-3.92,2.74-5.04,1.26-1.15,16.38-9.39,17.96-9.8.06,0,.12,0,.18,0,.87,0,1.77.19,2.71.4,1.11.24,2.37.51,3.81.51.5,0,1.01-.03,1.5-.1,1.77-.24,3.54-1.26,5.09-2.16,1.04-.6,2.01-1.17,2.63-1.28.02,0,.04,0,.07,0M290.13,176.69c1.12,0,2.22-.23,3.29-.69,1.91-.82,3-2.37,4.06-3.87,1.15-1.63,2.14-3.04,4.05-3.47.91-.21,2.29-.33,3.67-.33,2.62,0,4.78.43,5.63,1.13.46.38.87,1,1.3,1.66,1.01,1.56,2.39,3.69,5.62,3.69.25,0,.51-.01.77-.04,7.25-.69,13.94-10.46,15.41-18.79,1.03-5.8-.54-10.15-4.29-11.94-3.37-1.61-13.72-1.85-19.6-1.85-4.22,0-8.48.13-10.85.33-2.36.2-20.51,3.03-22.93,7.96-1.82,3.71-1.67,11.07,2.95,18.47,3.07,4.92,7.05,7.74,10.92,7.74M365.23,125.98l-3.84,8.6c-2.41,4.87-6.63,8.34-9.95,12.4-3.13,3.84-4.32,9.66-9.76,9.66-.67,0-1.41-.09-2.23-.28-1.28-6.23-.28-14.16-6.04-18.4-2.54-1.87-22.08-9.03-25.38-9.03-.09,0-.17,0-.24.02-1.83.33-4.9,3.06-7.69,3.43-.48.06-.93.09-1.37.09-2.53,0-4.46-.9-6.52-.9-.09,0-.18,0-.27,0-1.24.05-17.38,8.97-18.55,10.06-3.37,3.14-3.44,11.26-8.01,11.26-1.16,0-2.6-.52-4.47-1.77l-7.33-18.69c.41,11.36,2.43,24,7.85,34.11,4.76,8.88,19.4,14.02,20.67,24.54.55,4.55-1.09,6.2,1.51,10,6.23,9.11,15.4,12.59,25.17,12.59,5.39,0,10.97-1.06,16.33-2.82,20.11-6.61,37.8-37.52,39.2-57.68.62-8.98-.22-18.21.92-27.2h0ZM290.13,175.69c-8.97,0-16.81-16.93-12.97-24.77,1.94-3.95,17.6-7.02,22.12-7.41,2.14-.18,6.24-.33,10.76-.33,7.58,0,16.36.41,19.17,1.75,9.8,4.68-.04,27.81-10.79,28.83-.23.02-.46.03-.67.03-3.94,0-4.45-3.64-6.28-5.13-1.22-.99-3.85-1.35-6.26-1.35-1.51,0-2.94.14-3.89.36-4.2.96-4.68,5.86-8.28,7.4-.97.42-1.94.61-2.89.61h0Z"/>
  <path class="cls-2" d="M298.76,4.68c4.84,0,9.2,1.15,14.25,2.48,3.24.86,6.92,1.82,11.09,2.56.88.15,1.85.23,3.05.23.67,0,1.34-.02,2.02-.04.67-.02,1.34-.04,2.01-.04,1.09,0,1.97.06,2.77.18,6.81,1.06,19.79,11.02,24.02,16.49,1.23,1.59,2.02,3.38,2.78,5.12.8,1.83,1.56,3.55,2.78,5.04,1.95,2.37,3.62,3.68,5.09,4.84,2.77,2.17,4.59,3.6,6.29,10.85,1.47,6.29,2.29,33.05-.34,37.64-.56.98-1.74,2.03-2.98,3.14-1.88,1.68-4.12,3.67-5.06,6.27-.45-1.79-.78-3.59-1.13-5.48-.5-2.75-1.02-5.59-1.95-8.43-.67-2.06-1.64-4.07-2.57-6.02-1.83-3.82-3.56-7.43-3.26-11.42.21-2.77.71-5.36,1.2-7.87,1.22-6.24,2.37-12.13-1.1-19.85-3.82-8.5-18.46-19.2-27.97-20.45-.9-.12-1.82-.18-2.71-.18-4.64,0-8.42,1.56-12.43,3.21-2.91,1.2-5.92,2.44-9.37,3.08-4.24.79-8.13.98-11.9,1.16-9.84.47-18.33.88-26.6,12.11-8.48,11.52-9.97,25.47-11.42,38.96-.02.22-.05.43-.07.65-.06-.35-.11-.7-.16-1.06-.08-.57-.16-1.16-.28-1.72l-.25-1.15c-2.43-11.33-4.73-22.04,1.49-32.12.83-1.34,2.13-2.62,3.51-3.98,3.25-3.2,6.94-6.82,4.55-11.99-.27-.58-1.03-1.3-2.47-2.63-.9-.83-2.57-2.38-3.28-3.34.41,0,.83.02,1.25.02.75.02,1.53.03,2.32.03,3.64,0,7.72-.37,10.35-3.1,1.21-1.25,2.12-2.34,2.92-3.3,2.18-2.61,3.63-4.34,8.82-6.54,5.38-2.28,10.05-3.35,14.68-3.35M298.76,3.68c-4.37,0-9.15.91-15.07,3.42-7.35,3.12-7.56,5.4-12.07,10.07-2.34,2.43-6.07,2.79-9.63,2.79-1.51,0-2.99-.07-4.32-.07-.13,0-.26,0-.39,0-1.37,1.22,5.41,6.16,5.98,7.39,3.02,6.54-5.1,10.32-8,15.03-6.66,10.78-3.85,22.42-1.37,34.01.45,2.12.32,4.73,2.01,6.29,1.68-14.86,2.5-30.23,11.69-42.73,11.05-15.02,22.35-10,37.87-12.88,8.23-1.53,13.79-6.28,21.61-6.27.83,0,1.69.05,2.58.17,8.96,1.18,23.42,11.5,27.18,19.87,4.73,10.52.53,17.58-.19,27.23-.47,6.4,3.94,11.86,5.88,17.82,1.58,4.83,1.95,9.69,3.19,14.36.2.77.23,1.85,1.08,1.85.09,0,.19-.01.3-.04,0-5.35,6.53-8.27,8.37-11.47,2.81-4.9,1.95-31.91.44-38.36-2.68-11.45-6-9.3-11.58-16.1-2.29-2.79-2.97-6.8-5.55-10.14-4.4-5.69-17.51-15.76-24.66-16.87-.97-.15-1.95-.19-2.92-.19-1.36,0-2.71.09-4.04.09-.98,0-1.94-.05-2.88-.21-10.47-1.84-17.29-5.05-25.51-5.05h0Z"/>
  <path class="cls-2" d="M161.5,67.32c.93,0,2.2.3,2.52,2.92,1.51,12.28-6.51,25.52-13.58,37.19-2.95,4.86-5.73,9.45-7.77,13.8-3.05,6.49-3.82,10.54-2.44,12.72.48.75,1.46,1.64,3.44,1.64,1.29,0,2.86-.36,4.79-1.11,5.51-2.13,12.46-8.02,19.19-13.71,4.86-4.11,9.88-8.36,14.08-10.93.32-.2.71-.45,1.15-.74,1.93-1.27,5.15-3.39,7.37-3.39.75,0,1.68.21,2.18,1.84,1.66,5.45-6.57,12.76-10.53,16.27l-.05.04c-4.04,3.58-7.59,6.51-11.03,9.34-10.82,8.9-18.64,15.34-28.1,31.32-1.27,2.15-2.34,4.47-3.37,6.71-2.68,5.82-5.22,11.34-11.03,14.06,1.74-17.15-2.89-37.76-11.76-52.15,7.95-6,13.61-11.5,18.73-21.1,1.28-2.41,3.05-6.5,5.09-11.25,5.29-12.29,13.28-30.86,18.93-32.99.84-.32,1.58-.48,2.21-.48M161.5,66.32c-.76,0-1.62.19-2.56.54-8.24,3.11-19.81,35.82-24.54,44.71-5.08,9.54-10.58,14.9-19.18,21.32,9.49,14.9,14.15,36.51,11.91,53.96,9.91-3.48,11.72-13.83,16.45-21.83,12.34-20.85,22.1-25.49,38.93-40.42,4.29-3.81,12.73-11.26,10.87-17.35-.57-1.87-1.73-2.55-3.13-2.55-3.03,0-7.2,3.15-9.04,4.28-10.03,6.15-23.8,20.96-33.11,24.57-1.87.72-3.32,1.04-4.43,1.04-5.6,0-2.34-8.15-.1-12.94,7.07-15.07,23.61-33.87,21.44-51.55-.32-2.64-1.62-3.8-3.52-3.8h0Z"/>
  <path class="cls-2" d="M271.18,206.83c-.2.24-.38.52-.52.84-.81,1.75-.82,3.63-.04,5.6,2.71,6.88,14.34,12.89,18.58,14.62,9.48,3.87,20.1,5.92,30.72,5.92,11.21,0,22.4-2.26,32.35-6.54,10.41-4.48,19.17-10.9,26.04-19.11l7.17.82c.07,6.88-2.98,16.53-17.12,25.02-8.9,5.34-20.98,9.41-32.34,10.89-3.34.44-7.14.66-11.29.66-11.55,0-24.44-1.73-35.38-4.76-12.9-3.56-22.64-8.71-28.18-14.89-3.17-3.54-4.37-6.73-3.56-9.5,1.07-3.67,5.52-6.82,13.56-9.57M275.71,204.39c-10.85,3.02-26.95,9.15-15.27,22.17,12.42,13.86,42.55,19.98,64.3,19.98,4.18,0,8.04-.23,11.42-.67,19.06-2.49,51.43-14.32,50.3-37.8l-8.57-.98c-14.04,17.05-36,25.71-57.97,25.71-10.39,0-20.79-1.94-30.35-5.84-5.74-2.34-21.6-11.09-18.01-18.88.93-2.01,3.65-1.94,4.15-3.7h0Z"/>
  <path class="cls-2" d="M362.11,174.69l2.74,14.98v.06s.03.06.03.06c.14.42.27.85.41,1.28,1.7,5.34,3.78,11.91,9.41,14.65-1.34.71-2.26,1.93-3.15,3.12-.58.77-1.17,1.57-1.87,2.19-12.88,11.52-31.12,18.13-50.04,18.13-9.86,0-19.72-1.82-28.49-5.26-5.66-2.22-15.72-8.44-16.34-13.21l5.61-6.68c8.63,8.53,16.1,13.44,27.9,13.44.97,0,1.97-.03,2.99-.1,12.63-.84,23.69-5.85,32.85-14.88,6.93-6.83,12.96-16.16,17.95-27.78M362.49,171.18c-9.24,23.09-24.42,43.39-51.25,45.17-1.01.07-1.98.1-2.93.1-11.99,0-19.38-5.3-27.96-13.92l-6.58,7.83c.17,5.85,11.99,12.5,17.01,14.47,9.08,3.56,18.95,5.33,28.86,5.33,18.47,0,37.04-6.16,50.7-18.39,2.18-1.95,3.18-5.03,5.97-5.58v-.89c-6.6-2.32-8.55-9.87-10.48-15.83l-3.35-18.31h0Z"/>
  <path class="cls-2" d="M509.91,127.8h0c2.12,0,4.09,1.02,5.14,2.65,3.36,5.25,2.41,10.82,1.4,16.72-.74,4.36-1.51,8.86-.38,13.2,1.09,4.19,4.76,6.61,8.3,8.95,3.83,2.53,7.44,4.91,8.38,9.37.87,4.16,1.33,12.16-2.51,15.74-1.8,1.68-3.87,2.5-6.34,2.5-5.38,0-11.2-3.81-16.25-7.38-16.29-11.54-14.31-17.6-9.99-30.88.9-2.75,1.91-5.87,2.85-9.35.37-1.36.69-3.29,1.06-5.52.91-5.47,2.16-12.97,4.81-14.9,1-.73,2.21-1.11,3.52-1.11M509.91,126.8c-1.45,0-2.9.42-4.11,1.3-4.1,2.99-4.94,16.13-6.24,20.96-5.4,19.96-12.9,26.83,7.52,41.31,4.48,3.17,10.91,7.57,16.82,7.57,2.49,0,4.9-.78,7.02-2.77,3.97-3.71,3.85-11.68,2.8-16.67-1.95-9.29-14.6-10.35-16.69-18.37-2.55-9.77,5.05-20.55-1.15-30.22-1.29-2.01-3.63-3.11-5.98-3.11h0Z"/>
  <path class="cls-2" d="M114.02,137.04c2.18,4.32,3.78,8.33,5.01,12.49,3.02,10.27,6.87,28.45,5.08,36.44-.75,3.36-7.3,5.44-12.92,5.44-3.31,0-5.96-.68-7.08-1.83-1.19-1.21-2.7-6.61-2.8-8.76-.14-3.19.79-6.1,1.77-9.18,1.24-3.9,2.52-7.92,1.89-12.98-.15-1.17-.56-2.27-.96-3.33-.57-1.51-1.11-2.94-.87-4.45l10.88-13.85M114.19,135.2l-12,15.27c-.62,3.04,1.44,5.6,1.78,8.33,1.11,8.84-3.99,14.65-3.67,22.08.1,2.23,1.64,7.95,3.08,9.41,1.41,1.44,4.44,2.13,7.8,2.13,5.97,0,13-2.18,13.9-6.22,1.95-8.71-2.46-27.99-5.1-36.94-1.46-4.97-3.4-9.49-5.79-14.05h0Z"/>
  <path class="cls-2" d="M569.59,202.81l6.32,8.2c-3.36,8.74-19.21,18.88-28.6,19.95-.58.07-1.24.1-1.92.1-3.41,0-6.15-.79-6.66-1.93-.34-.76.38-1.84,1.05-2.61.91-1.05,3.74-2.34,6.24-3.48,1.8-.82,3.5-1.59,4.63-2.33l1.15-.74c6.67-4.29,14.86-9.56,17.79-17.17M569.22,200.69c-2.23,8.7-11.89,14.51-19.11,19.19-2.71,1.75-9.33,3.98-11.08,5.99-4.15,4.77,1.89,6.19,6.36,6.19.74,0,1.43-.04,2.03-.11,9.6-1.1,26.47-11.64,29.61-21.12l-7.81-10.14h0Z"/>
  <path class="cls-2" d="M524.81,105.64v1c3.48,0,7.69,3.01,9.43,5.81.57.92.83,1.74.74,2.35-1.12.25-1.77.99-1.92,2.23-.26,2.11-.13,5.19.01,8.46.28,6.76.64,15.17-2.3,17.81-.64.57-1.22.86-1.74.86-1.5,0-2.99-2.4-4.31-4.51-.59-.95-1.16-1.86-1.75-2.62,1.8-.78,3-1.9,3.59-3.34,1.47-3.61-1.17-8.26-3.72-12.76-1.71-3.02-3.48-6.14-3.25-7.94.54-4.21,2.29-6.34,5.21-6.34v-1M524.81,105.64c-2.96,0-5.52,1.9-6.2,7.21-.78,6.08,15,20.15,2.61,23.73,2.44,2.08,4.54,8.57,7.81,8.57.74,0,1.54-.33,2.41-1.12,4.8-4.31,1.83-20.45,2.61-26.89.21-1.72,1.59-1.27,1.7-1.51,1.61-3.24-5.37-10-10.95-10h0Z"/>
  <path class="cls-2" d="M114.64,108.27h0c1.46,0,2.8.68,4.07,2.07,2.05,2.23,2.8,11.47,1.57,14.2-.68.76-5.39,4.81-6.41,5.58-.23-.06-.66-.24-.99-.38-1.12-.47-2.64-1.1-4.49-1.1-1.9,0-3.73.69-5.44,2.07-.87.7-1.35,1.55-1.74,2.24-.07.13-.14.25-.21.36-1.65-8.22-1.06-12.15,4.38-18.58,2.34-2.77,5.86-6.46,9.27-6.46M114.64,107.27c-3.81,0-7.51,3.83-10.03,6.81-6.12,7.24-6.3,11.7-4.24,21.12,1.55-.45,1.61-2.43,3.2-3.71,1.74-1.4,3.37-1.85,4.82-1.85,2.63,0,4.65,1.5,5.59,1.5.09,0,.18-.01.25-.05.42-.19,6.71-5.61,6.92-6.03,1.42-2.9.68-12.82-1.69-15.4-1.57-1.71-3.2-2.4-4.81-2.4h0Z"/>
  <path class="cls-2" d="M378.93,98.42c.89,0,1.63.34,2.28,1.03,2.55,2.76,2.71,10.09,2.41,13.98-.41,5.22-4.18,19.45-7.01,23.71-1.12,1.69-1.76,1.82-1.93,1.82-.29,0-.81-.43-1.37-1.64-1.36-2.93-.07-6.76,1.17-10.46.89-2.65,1.81-5.39,1.76-7.85-.05-2.13-.92-3.88-1.77-5.57-1.03-2.06-2.1-4.18-1.81-7.21.27-2.84,3.07-7.26,5.46-7.73.28-.06.56-.08.81-.08M378.93,97.42c-.32,0-.65.03-1.01.1-3.06.6-5.98,5.63-6.26,8.62-.55,5.88,3.48,8.53,3.58,12.89.13,5.65-5.4,13.19-2.84,18.71.72,1.55,1.48,2.22,2.27,2.22.9,0,1.83-.86,2.76-2.26,2.89-4.35,6.75-18.81,7.18-24.18.34-4.3.31-16.09-5.68-16.09h0Z"/>
  <path class="cls-2" d="M575.98,324.27h0c.46,0,.92.02,1.42.05.32.02.65.03.98.04,0,9.8-3.38,19.15-6.65,28.2-.81,2.23-1.64,4.53-2.41,6.82-.1.01-.21.02-.31.02-2.58,0-5.77-3.98-6.16-6.29-.74-4.32,6.88-24.74,9.81-27.71.92-.94,2-1.13,3.34-1.13M575.98,323.27c-1.48,0-2.87.24-4.05,1.43-3.18,3.23-10.85,24.03-10.08,28.58.45,2.62,3.95,7.12,7.15,7.12.37,0,.73-.06,1.09-.19,4.02-12.01,9.59-23.88,9.28-36.85-.13,0-.27,0-.4,0-1.01,0-2.02-.1-2.99-.1h0Z"/>
  <path class="cls-2" d="M179.67,329.16c4.18,8.61,5.39,31.79-.66,38.26-.12.13-.23.25-.34.37-.42.47-.62.67-.84.74-1.31-7.96-2.38-16.5-1.7-25.24.09-1.18.56-4.92,1.34-8.33.92-4.03,1.78-5.36,2.2-5.8M179.94,327.96c-2.95,0-4.63,13-4.81,15.26-.69,8.84.39,17.61,1.84,26.27.23.05.44.07.62.07,1,0,1.41-.67,2.14-1.45,6.59-7.05,5.08-31.84.45-40.12-.08-.02-.16-.03-.25-.03h0Z"/>
  <path class="cls-2" d="M239.77,228.27c4.37,3.64,11.92,17.22,12.91,25.12.24,1.9.02,3.23-.61,3.66-.1.06-.19.09-.31.09-2.12,0-6.58-6.9-7.9-9.82-2.58-5.72-4.1-12.86-4.1-19.05M238.81,226.52c-.34,6.89,1.3,14.92,4.14,21.22.92,2.03,5.72,10.41,8.81,10.41.31,0,.6-.08.87-.27,5.04-3.43-7.91-29.21-13.82-31.36h0Z"/>
  <path class="cls-2" d="M465.46,238.2c.39,1.34.59,4.64.3,8.99-.46,7-2.27,14.3-4.03,21.36-.51,2.07-1.04,4.18-1.52,6.28l-.74-2.79c0-1.12-.02-2.26-.03-3.42-.11-10.37-.23-22.07,6.01-30.41M465.39,236.68s0,0-.01,0c-7.96,9.61-6.94,23.61-6.91,35.48l1.82,6.92c2.11-10.31,5.77-21.3,6.46-31.83.11-1.61.61-10.58-1.36-10.58h0Z"/>
  <path class="cls-2" d="M95.26,131.58l1.32,9.69c0,.83.04,1.72.09,2.66.15,3.02.32,6.45-1.14,7.98-.57.6-1.41.9-2.54.9-.38,0-.79-.03-1.23-.1-.81-.12-1.35-.47-1.7-1.1-2.02-3.66,2.82-14.63,5.14-19.9.02-.04.04-.08.05-.12M95.76,127.83c-1.55,4.36-12.28,24.64-4.14,25.87.5.07.95.11,1.38.11,6.24,0,4.56-7.82,4.59-12.6l-1.83-13.38h0Z"/>
  <path class="cls-2" d="M120.23,284.77c3.53,1.27,13.34,8.36,17.85,14.62,1.48,2.06,2.19,3.79,2.01,4.92-.07.02-.16.04-.28.04-4.35,0-17.08-14.28-19.58-19.57M119.35,283.57c-.23,0-.4.05-.52.15.61,4.2,15.66,21.62,20.99,21.62.47,0,.86-.13,1.16-.42,2.05-6.16-17.6-21.35-21.62-21.35h0Z"/>
  <path class="cls-2" d="M80.91,294.88c-.52,1.29-1.03,2.63-1.55,4.02-2.31,6.14-4.7,12.46-9.43,16.16-.01-4.24,1.02-8.46,2.96-12.05,1.95-3.6,4.7-6.37,8.02-8.13M82.83,292.94c-9.68,3.52-14.56,14.06-13.83,23.97,7.96-4.83,10.15-15.9,13.83-23.97h0Z"/>
  <path class="cls-2" d="M591.87,333.11c4.59,3.77,11.11,9.8,13.46,12.97l-7.42-4.42-6.04-8.55M587.68,328.9l9.54,13.51,9.82,5.85c2.2-2.1-16.82-18.43-19.37-19.37h0Z"/>
  <path class="cls-2" d="M570.49,296.02c2.19,3.02,3.97,6.58,5.21,10.44l-5.21-10.44M566.45,290.16l11.98,23.98c-1.1-8.86-5.06-18.18-11.98-23.98h0Z"/>
  <path class="cls-2" d="M332.95,77.41v1s.07,0,.11,0l-13.41,2.59-.19.04-.16.11-4.93,3.19c1.32-1.59,3.29-2.9,5.88-3.89,3.42-1.31,7.93-2.03,12.7-2.03v-1M332.95,77.41c-8.64,0-19.1,2.32-21.23,9.83l8.12-5.25,20.48-3.96c-2.05-.38-4.62-.61-7.37-.61h0Z"/>
  <path class="cls-2" d="M109.38,133.22h0c.06,0,.11,0,.17,0l-7.02,8.94c.58-4.6,2.33-8.94,6.85-8.94M109.38,132.22c-6.41,0-7.93,7.29-8.09,13.13l10.14-12.91c-.73-.15-1.42-.22-2.05-.22h0Z"/>
  <path class="cls-2" d="M64.95,327c-.8,1.26-2.05,2.93-3.87,4.98-3.13,3.52-5.87,5.84-7.33,6.73.36-.57.98-1.44,2.06-2.77l.12-.14c.73-.89,5.87-6.02,9.02-8.8M67.04,324.26c-1.2,0-11.15,10-11.89,10.91-.65.8-3.44,4.14-2.77,4.8.1.1.25.15.43.15,2.87,0,14.66-12.69,14.33-15.83-.02-.02-.05-.03-.09-.03h0Z"/>
  <path class="cls-2" d="M272.86,182.92c3.11,3.17,5.11,6.71,6.04,10.72l-.07-.05-5.97-10.66M269.27,178.55l8.78,15.69,2.28,1.83c-.88-7.56-5.01-13.15-11.06-17.52h0Z"/>
  <path class="cls-2" d="M519.77,124.37c.51.87.97,1.84,1.23,2.59.51,1.45.97,2.9,1.09,4.43-1.59-1.71-2.04-4.4-2.32-7.01M518.46,121.37c.52,4.13.38,9.8,4.6,11.99.29-2.41-.32-4.49-1.11-6.72-.48-1.37-2.07-4.63-3.49-5.26h0Z"/>
  <path class="cls-2" d="M100.39,161.34c-.09,3.28-.71,5.78-2.85,7.12l2.85-7.12M101.28,156.42l-5.53,13.82c6.49-1.52,5.73-8.54,5.53-13.82h0Z"/>
  <path class="cls-2" d="M574.91,201.19c.27.15.52.3.62.43.5.61.94,1.46,1.28,2.36-.77-.95-1.45-1.92-1.9-2.78M573.36,198.85c-.53,2.25,3.05,6.46,5.07,8.3.04-1.97-.92-4.68-2.13-6.17-.61-.75-2.3-1.12-2.94-2.13h0Z"/>
  <path class="cls-2" d="M274.86,93.89h0c2.18,0,4.53.42,6.63,1.17-1.03.83-2.96,1.97-3.62,2.25h-11.47c2.25-2.94,6.15-3.42,8.46-3.42M274.86,92.89c-4.29,0-8.4,1.5-10.22,5.42h13.38c.31,0,4.93-2.54,5.07-3.68-2.4-1.07-5.36-1.74-8.24-1.74h0Z"/>
  <path class="cls-2" d="M310.03,143.19v1c7.64,0,13.65.4,16.87,1.08h-30.41c-1.4,0-3.66.78-6.27,1.67-2.77.95-5.91,2.03-7.79,2.03-.07,0-.13,0-.2,0l-.75-.03c4.98-2.22,13.88-4.08,17.88-4.42,2.31-.2,6.5-.33,10.68-.33v-1M327.76,145.48c.41.11.74.23,1.01.36.54.26,1.17.67,1.75,1.32l-.14-.03c-.52-.11-.97-.17-1.37-.17-2.02,0-2.52,1.39-2.93,2.51-.26.72-.54,1.47-1.19,2.19-3.52,3.87-11.5,9.53-16.14,10.76-.62.16-1.51.17-2.38.18-1.77.02-3.76.04-4.64,1.43l.03-.25-1.07-.05c-9.79-.49-15-3.1-21.42-10.73l-1.27-1.51s.04-.09.06-.13c.33-.68,1.27-1.37,2.58-2.03l.69,1.15c2.13,3.53,7.46,3.92,10.99,4.17l.36.03c2.41.18,4.76.27,6.98.27,12.37,0,21.32-2.68,26.6-7.98l1.49-1.5M299.59,162.87c5.53,0,11.28-1.67,16.62-4.84,1.77-1.05,4.02-2.58,4.7-3.92l1-1.97-2.14.55c-7.46,1.92-14.06,2.86-20.18,2.86s-11.73-.93-17.07-2.83l-3.33-1.19,2.22,2.76c4.52,5.62,10.81,8.58,18.19,8.58M331.18,148.08c.89,1.51,1.42,3.87.77,7.55-1.35,7.61-7.46,16.56-13.64,17.15-.2.02-.39.03-.58.03-2.14,0-2.97-1.29-3.94-2.78-.49-.76-1.01-1.55-1.71-2.12-1.69-1.37-5.04-1.58-6.89-1.58-1.55,0-3.05.14-4.12.38-2.65.61-4.03,2.55-5.24,4.27-.94,1.33-1.83,2.59-3.21,3.18-.81.35-1.65.53-2.5.53-3.17,0-6.53-2.48-9.22-6.8-3.51-5.63-4.72-12.48-2.92-16.39l-.46,1.91c-.91,3.78,1.62,11.32,5.41,16.13,2.34,2.97,4.86,4.54,7.28,4.54.88,0,1.74-.21,2.56-.62,1.36-.68,2.2-2.38,2.94-3.88.4-.81.85-1.72,1.18-1.99.44-.36,1.15-.47,1.83-.58.86-.14,2.08-.34,2.63-1.31h1.12s.24,0,.24,0c.75,0,1.46-.02,2.15-.05.63-.02,1.24-.04,1.83-.04,2.41,0,4.3.35,6.24,2.1.67.61,1.1,1.31,1.52,2,.72,1.18,1.53,2.51,3.47,2.51.87,0,1.88-.27,3.18-.84,7.35-3.24,11.32-16.34,10.07-23.32M310.03,143.19c-4.52,0-8.62.15-10.76.33-4.52.39-20.18,3.45-22.12,7.41-3.84,7.84,4,24.77,12.97,24.77.95,0,1.92-.19,2.89-.61,3.6-1.54,4.08-6.44,8.28-7.4.95-.22,2.38-.36,3.89-.36,2.42,0,5.04.36,6.26,1.35,1.83,1.49,2.35,5.13,6.28,5.13.21,0,.44-.01.67-.03,10.75-1.03,20.59-24.16,10.79-28.83-2.81-1.34-11.59-1.75-19.17-1.75h0ZM282.42,149.98c3.78,0,11.36-3.71,14.06-3.71h29.07c-6.12,6.13-16.63,7.68-25.89,7.68-2.42,0-4.76-.11-6.91-.27-3.41-.25-8.64-.52-10.57-3.72.08,0,.16,0,.24,0h0ZM302.72,164.71c-.08,0-.15,0-.23,0,.83-1.68,4.45-.78,6.51-1.32,4.94-1.31,13.13-7.2,16.63-11.05,1.89-2.08,1.13-4.38,3.38-4.38.32,0,.7.05,1.16.15,1.33,6.9-2.72,19.39-9.46,22.37-1.21.53-2.09.76-2.78.76-2.26,0-2.31-2.44-4.32-4.25-2.24-2.02-4.45-2.36-6.91-2.36-1.25,0-2.56.09-3.98.09h0ZM290.22,173.08c-6.62,0-12.99-14.14-11.72-19.43,6.45,7.67,11.95,10.57,22.13,11.08-.21,1.73-2.86.87-4.36,2.09-1.2.98-2.11,4.84-3.93,5.75-.7.35-1.41.51-2.12.51h0ZM320.01,153.66c-.61,1.2-3.14,2.82-4.32,3.51-5.02,2.98-10.66,4.7-16.11,4.7-6.53,0-12.79-2.47-17.41-8.21,5.73,2.04,11.56,2.89,17.41,2.89,6.83,0,13.69-1.15,20.42-2.89h0Z"/>
  <path class="cls-2" d="M322.87,147.27c-5.06,3.77-12.85,5.68-23.21,5.68-2.18,0-4.48-.09-6.84-.26l-.36-.03c-2.5-.18-6.02-.44-8.14-1.89,1.95-.36,4.27-1.16,6.54-1.94,2.24-.77,4.55-1.57,5.62-1.57h26.39M325.56,146.27h-29.07c-2.7,0-10.28,3.71-14.06,3.71-.08,0-.16,0-.24,0,1.93,3.19,7.16,3.47,10.57,3.72,2.15.16,4.49.27,6.91.27,9.27,0,19.78-1.56,25.89-7.68h0Z"/>
  <path class="cls-2" d="M329.01,148.96c.09,0,.18,0,.29.02.93,6.91-3.14,18-8.99,20.58-1.01.44-1.81.67-2.37.67-.76,0-1.05-.38-1.76-1.55-.44-.73-1-1.64-1.89-2.44-1.32-1.19-2.65-1.85-3.97-2.21,5.08-1.78,12.54-7.15,16.06-11.02.92-1.01,1.29-2.03,1.59-2.85.42-1.15.51-1.2,1.05-1.2M329.01,147.96c-2.25,0-1.49,2.3-3.38,4.38-3.5,3.85-11.68,9.74-16.63,11.05-2.06.55-5.68-.36-6.51,1.32.08,0,.15,0,.23,0,1.42,0,2.73-.09,3.98-.09,2.46,0,4.67.34,6.91,2.36,2.02,1.82,2.06,4.25,4.32,4.25.68,0,1.57-.22,2.78-.76,6.74-2.97,10.79-15.47,9.46-22.37-.46-.1-.84-.15-1.16-.15h0Z"/>
  <path class="cls-2" d="M279.38,156.17c5.24,5.69,10.14,8.31,17.44,9.24-.41.14-.81.35-1.17.64-.67.55-1.16,1.53-1.71,2.66-.57,1.16-1.28,2.59-2.04,2.97-.54.27-1.1.41-1.67.41-1.77,0-3.8-1.34-5.71-3.77-2.69-3.41-4.79-8.59-5.13-12.14M278.5,153.65c-1.27,5.29,5.11,19.43,11.72,19.43.71,0,1.42-.16,2.12-.51,1.82-.91,2.73-4.77,3.93-5.75,1.5-1.22,4.15-.36,4.36-2.09-10.19-.51-15.68-3.41-22.13-11.08h0Z"/>
  <path class="cls-2" d="M316.4,155.55c-.38.25-.79.51-1.21.76-5.03,2.98-10.42,4.56-15.6,4.56-5.43,0-10.21-1.75-14.02-5.1,4.43,1.2,9.05,1.78,14.02,1.78s10.73-.65,16.81-1.99M320.01,153.66c-6.74,1.74-13.59,2.89-20.42,2.89-5.85,0-11.68-.84-17.41-2.89,4.62,5.74,10.88,8.21,17.41,8.21,5.45,0,11.09-1.72,16.11-4.7,1.18-.7,3.71-2.31,4.32-3.51h0Z"/>
</svg>